PathFileType        4      (X/Y/Z)      C:\Users\pc\Desktop\IMUTRC\Sujet_06\Sujet_06_velo_60.trc         
DataRate	CameraRate	NumFrames	NumMarkers	Units	OrigDataRate	OrigDataStartFrame	OrigNumFrames
60.0	60.0	4	64	mm	60.0	820	936
Frame#	Time	pHipOrigin			pRightASI			pLeftASI			pRightCSI			pLeftCSI			pRightIschialTub			pLeftIschialTub			pSacrum			pL5SpinalProcess			pL3SpinalProcess			pT12SpinalProcess			pIJ			pT4SpinalProcess			pT8SpinalProcess			pPX			pC7SpinalProcess			pTopOfHead			pRightAuricularis			pLeftAuricularis			pBackOfHead			pRightAcromion			pLeftAcromion			pRightArmLatEpicondyle			pRightArmMedEpicondyle			pLeftArmLatEpicondyle			pLeftArmMedEpicondyle			pRightUlnarStyloid			pRightRadialStyloid			pRightOlecranon			pLeftUlnarStyloid			pLeftRadialStyloid			pLeftOlecranon			pRightTopOfHand			pRightPinky			pRightBallHand			pLeftTopOfHand			pLeftPinky			pLeftBallHand			pRightGreaterTrochanter			pRightKneeLatEpicondyle			pRightKneeMedEpicondyle			pRightPatella			pLeftGreaterTrochanter			pLeftKneeLatEpicondyle			pLeftKneeMedEpicondyle			pLeftPatella			pRightTibialTub			pRightLatMalleolus			pRightMedMalleolus			pLeftTibialTub			pLeftLatMalleolus			pLeftMedMalleolus			pRightHeelFoot			pRightFirstMetatarsal			pRightFifthMetatarsal			pRightPivotFoot			pRightHeelCenter			pRightToe			pLeftHeelFoot			pLeftFirstMetatarsal			pLeftFifthMetatarsal			pLeftPivotFoot			pLeftHeelCenter			pLeftToe			
		X1	Y1	Z1	X2	Y2	Z2	X3	Y3	Z3	X4	Y4	Z4	X5	Y5	Z5	X6	Y6	Z6	X7	Y7	Z7	X8	Y8	Z8	X9	Y9	Z9	X10	Y10	Z10	X11	Y11	Z11	X12	Y12	Z12	X13	Y13	Z13	X14	Y14	Z14	X15	Y15	Z15	X16	Y16	Z16	X17	Y17	Z17	X18	Y18	Z18	X19	Y19	Z19	X20	Y20	Z20	X21	Y21	Z21	X22	Y22	Z22	X23	Y23	Z23	X24	Y24	Z24	X25	Y25	Z25	X26	Y26	Z26	X27	Y27	Z27	X28	Y28	Z28	X29	Y29	Z29	X30	Y30	Z30	X31	Y31	Z31	X32	Y32	Z32	X33	Y33	Z33	X34	Y34	Z34	X35	Y35	Z35	X36	Y36	Z36	X37	Y37	Z37	X38	Y38	Z38	X39	Y39	Z39	X40	Y40	Z40	X41	Y41	Z41	X42	Y42	Z42	X43	Y43	Z43	X44	Y44	Z44	X45	Y45	Z45	X46	Y46	Z46	X47	Y47	Z47	X48	Y48	Z48	X49	Y49	Z49	X50	Y50	Z50	X51	Y51	Z51	X52	Y52	Z52	X53	Y53	Z53	X54	Y54	Z54	X55	Y55	Z55	X56	Y56	Z56	X57	Y57	Z57	X58	Y58	Z58	X59	Y59	Z59	X60	Y60	Z60	X61	Y61	Z61	X62	Y62	Z62	X63	Y63	Z63	X64	Y64	Z64	
820	13.65	0.0	1249.97291	7.653876616262013E-14	39.980820000000016	1327.99714	128.39654000000007	78.72873999999999	1340.97183	-98.51366999999993	5.988320000000013	1388.40868	107.67227000000008	38.630509999999994	1399.38726	-83.60158999999992	-57.123839999999994	1199.30706	36.75182000000008	-40.80274000000001	1204.8257	-58.943819999999924	-57.06513	1270.28621	-8.571509999999915	-25.4797	1360.69805	0.9980500000000864	20.31331	1470.54255	11.741800000000088	64.28633	1570.11298	20.43073000000009	308.16344	1657.00227	67.57404000000005	177.47725	1732.26718	39.804690000000086	118.65085	1663.40155	29.824160000000088	231.72435	1559.54536	54.775480000000066	221.15673	1779.4105	47.49557000000008	501.96178	1795.37934	46.73235000000004	402.97844	1789.2736	126.04818000000007	393.93726	1779.17566	-17.96494999999994	392.05857	1840.58525	50.48972000000006	198.55377000000001	1750.40826	225.55990000000008	258.2021	1738.66646	-129.0423399999999	353.6629	1497.07901	227.67343000000002	342.97787	1489.68168	165.97029000000006	431.27617	1503.5957	-139.25769999999997	400.39525	1475.18056	-92.23180999999995	515.46485	1311.03025	269.29809	547.75479	1335.86415	236.94945000000004	330.00318	1483.75207	214.69874000000004	632.70668	1357.35163	-160.39294	643.9201	1370.32632	-111.25352	408.37967	1485.9243	-141.89960999999997	698.75429	1331.46097	232.78111	630.828	1299.75812	265.12976	562.49074	1305.80515	253.56409000000002	797.62021	1358.99548	-82.30999000000001	738.85252	1344.14211	-137.02676	669.3998	1346.90143	-137.61385	-7.279909999999982	1212.45787	145.4808500000001	214.58132000000003	904.58797	133.97389000000004	230.31533	911.51563	62.23152000000003	254.03376	933.88376	105.03037000000003	54.129679999999986	1253.37803	-140.78413999999992	401.3933	1113.23969	-78.14164999999997	390.53214	1103.14175	-5.812189999999981	406.91195	1146.93865	-32.407359999999976	250.33509	861.613	103.38651000000003	8.395380000000014	577.63766	118.29860000000002	16.262390000000007	574.05641	59.824450000000034	434.56387	1072.55437	-38.689219999999985	299.23967	732.62937	-112.89737	293.5449	727.22814	-54.305809999999994	-65.98888999999998	530.90531	76.32167000000004	65.10826000000002	436.73611	70.74432000000002	50.13747000000002	441.60895	145.48085000000003	74.79524000000002	426.34462	111.37094000000002	-35.40151999999999	510.47459	83.77772000000003	134.67840000000004	381.66708	126.28302000000001	238.06492	659.94765	-87.18283999999998	388.35991	617.73589	-45.85171000000001	390.9431	619.49716	-122.17339	410.49319	612.74563	-82.36870000000002	274.64061	651.84581	-86.12606999999998	483.87942	592.49103	-80.37259000000002	
821	13.667	0.0	1249.97291	7.653876616262013E-14	39.74598000000002	1328.05585	128.4552500000001	78.78744999999999	1340.97183	-98.39624999999992	5.694770000000013	1388.46739	107.61356000000009	38.630509999999994	1399.32855	-83.60158999999992	-57.123839999999994	1199.30706	36.63440000000008	-40.685320000000004	1204.76699	-58.943819999999924	-57.06513	1270.22751	-8.688929999999914	-25.53841	1360.69805	0.8806300000000864	20.07847	1470.54255	11.683090000000089	63.93408	1570.2304	20.43073000000009	307.57635	1657.41323	68.10242000000005	176.83145	1732.50202	40.03952000000009	118.12247	1663.57768	29.88287000000009	231.31338	1559.89762	55.18644000000006	220.45222	1779.70404	47.78911000000008	501.25728	1795.7903	47.61298000000004	402.09781	1789.68457	126.75269000000007	393.29146	1779.58662	-17.31914999999994	391.35407	1840.99622	51.135520000000064	198.02539000000002	1750.87793	225.73603000000008	257.84984	1738.84259	-128.74878999999993	353.07581	1497.6661	227.90826000000004	342.44948	1490.26877	166.20512000000005	431.04134	1503.94796	-139.25769999999997	400.21912	1475.53281	-92.17309999999996	514.93647	1311.55863	269.3568	547.22641	1336.39253	236.94945000000004	329.4748	1484.28045	214.93358000000006	632.41314	1357.58647	-160.39294	643.68526	1370.61986	-111.25352	408.14483	1486.21785	-141.84089999999998	698.22591	1331.98935	232.7224	630.29962	1300.2865	265.07105	561.96236	1306.33353	253.62280000000004	797.38538	1359.23032	-82.36870000000002	738.61769	1344.37695	-137.02676	669.10625	1347.13627	-137.61385	-6.340569999999982	1212.92754	145.53956000000008	222.56575000000004	910.16533	134.15002000000004	237.77137	917.21041	62.23152000000003	261.19626	940.28303	104.85424000000003	53.953549999999986	1251.55805	-140.9015499999999	396.87271	1101.02822	-78.55261999999998	386.01155	1091.81091	-6.16443999999998	403.68295	1134.8446	-33.11186999999998	255.73632	866.48585	103.26910000000002	2.0548100000000145	593.07812	119.35536000000005	9.393440000000007	589.20333	60.82250000000003	431.33488	1061.81062	-39.04146999999998	305.40412	718.18696	-113.01479	299.94418	712.66832	-54.42322999999999	-73.79718999999999	548.22446	78.02424000000005	54.658060000000006	450.53272	72.74043000000003	40.15694000000002	456.40362	147.47696000000002	64.28633000000002	440.25865	113.36704000000002	-43.796899999999994	527.08923	85.53898000000002	122.99531000000002	394.11339	128.39654	246.10805	643.97881	-87.41766999999999	397.22496	605.52443	-45.55817000000001	400.04299	607.34441	-121.87984	419.59308	601.12125	-82.01645000000002	282.85987	636.81631	-86.24348999999998	493.50769	582.68663	-79.72680000000001	
822	13.683	0.0	1249.97291	7.653876616262013E-14	39.39373000000001	1328.17327	128.4552500000001	78.96357999999998	1340.97183	-98.33753999999993	5.401230000000013	1388.58481	107.55485000000009	38.74792999999999	1399.32855	-83.66029999999992	-57.18254999999999	1199.30706	36.57569000000008	-40.50920000000001	1204.64957	-59.00252999999992	-57.06513	1270.1688	-8.806349999999915	-25.59712	1360.63934	0.7632200000000864	19.84364	1470.54255	11.56567000000009	63.58183	1570.28911	20.372020000000088	306.93055	1657.94161	68.57209000000006	176.12694	1732.79556	40.156940000000084	117.59409	1663.69509	29.941580000000087	230.84371	1560.24987	55.479990000000065	219.68901	1780.05629	47.96524000000008	500.43535	1796.31868	48.55233000000004	401.09976	1790.15424	127.39849000000007	392.70437	1780.115	-16.67334999999994	390.53214	1841.5246	51.781320000000065	197.49701000000002	1751.46502	225.79474000000008	257.49759	1739.01872	-128.5139599999999	352.48872	1498.3119	228.02568000000002	341.86239	1490.97327	166.32254000000006	430.86521	1504.41763	-139.43382999999997	400.16041	1475.88507	-92.34922999999996	514.34938	1312.08701	269.23939	546.58061	1336.97962	236.83203000000003	328.88771	1484.98496	215.10971000000006	632.1783	1357.7626	-160.45164	643.45043	1370.8547	-111.37094	407.96871	1486.68752	-142.01701999999997	697.58011	1332.51773	232.42885	629.71253	1300.81488	264.89492	561.37527	1306.86191	253.44667000000004	797.15054	1359.34774	-82.42741000000001	738.32414	1344.49437	-137.14418	668.87142	1347.3124	-137.73127	-5.401229999999982	1213.39721	145.5982700000001	230.96113000000003	916.5059	134.20873000000003	245.75579	923.66839	62.23152000000003	268.76971	947.44553	104.67811000000003	53.60129999999999	1249.56194	-141.0776799999999	391.29536	1087.29032	-79.37453999999997	380.55161	1079.07106	-6.810239999999981	399.57332	1121.22411	-34.22733999999998	261.72464	872.12191	103.03426000000003	-2.9941599999999853	609.51664	120.58825000000004	3.7573700000000074	605.40701	62.05539000000004	427.22525	1049.48174	-39.80468999999999	310.15954	702.62908	-113.19091	304.81703	697.11044	-54.599349999999994	-80.31388999999999	566.71779	79.96163000000004	45.38204000000001	465.56222	74.50170000000003	31.468010000000017	472.25504	149.29694000000003	54.95161000000002	455.17073	115.18702000000003	-50.841979999999985	544.81934	87.41767000000003	112.48641000000002	407.55774	130.15781000000004	252.56603	627.18804	-87.71121999999998	404.38746	592.19749	-45.38204000000002	407.38162	593.95876	-121.64501000000001	426.99042	588.20528	-81.78161000000001	289.43527	620.84747	-86.41961999999998	501.19857	571.47322	-79.19841000000002	
823	13.7	0.0	1249.97291	7.653876616262013E-14	38.98276000000001	1328.29069	128.51396000000008	79.19840999999998	1340.91312	-98.16141999999994	4.9902600000000135	1388.64352	107.43743000000009	38.86534999999999	1399.26985	-83.66029999999992	-57.299969999999995	1199.30706	36.45828000000008	-40.333070000000006	1204.59087	-59.11993999999992	-57.06513	1270.1688	-8.982469999999914	-25.71453	1360.63934	0.6458000000000864	19.6088	1470.60126	11.448250000000089	63.17086	1570.40652	20.31331000000009	306.28475	1658.47	69.10047000000006	175.42243	1733.08911	40.27436000000009	117.06571	1663.87122	29.941580000000087	230.43275	1560.66083	55.89095000000006	218.86708	1780.40855	48.200070000000075	499.67213	1796.90577	49.432960000000044	400.1017	1790.74133	128.04429000000005	392.05857	1780.58468	-16.08625999999994	389.71021	1842.05298	52.36841000000006	196.96863000000002	1751.9934	225.91216000000009	257.14534	1739.19484	-128.2204099999999	351.90163	1499.0164	228.20181000000002	341.33401	1491.67778	166.49867000000006	430.63037	1504.82859	-139.60995999999997	399.92558	1476.17861	-92.58405999999995	513.70358	1312.6741	269.23939	545.93481	1337.44929	236.77332000000004	328.35933	1485.68947	215.28583000000006	631.82605	1357.88001	-160.56906	643.09817	1370.97212	-111.48835	407.79258	1486.98106	-142.19314999999997	696.93431	1332.81128	232.19402	629.00802	1301.22585	264.71879	560.67077	1307.39029	253.38796000000002	796.79829	1359.40645	-82.48612000000001	737.97189	1344.49437	-137.20289	668.51916	1347.37111	-137.78998	-4.579299999999982	1213.80818	145.5982700000001	239.82619000000003	923.49227	134.20873000000003	254.20989	930.8896	62.23152000000003	276.63672	955.42995	104.50199000000003	53.24904999999998	1247.44842	-141.2538099999999	384.77866	1072.67179	-80.43129999999996	374.15233	1065.39187	-7.749589999999982	394.64177	1106.60558	-35.57763999999998	268.18262	878.75602	102.79943000000003	-6.281859999999985	626.42482	121.70372000000005	-0.05870999999999227	622.19778	63.112150000000035	421.94144	1036.33093	-40.861449999999984	313.27112	686.60153	-113.36704	308.16344	681.02418	-54.71676999999999	-85.12801999999999	585.68079	81.72290000000005	37.74987000000001	481.00268	76.20426000000003	24.42294000000002	488.51743	151.05821000000003	47.26073000000002	470.61119	116.88958000000002	-56.18448999999998	563.01912	89.17894000000003	103.50393000000001	421.53048	131.80166000000003	257.14534	610.04502	-87.88733999999998	409.55385	577.98991	-45.147210000000015	412.72413	579.75118	-121.46888000000003	432.27422	574.40867	-81.48807000000002	294.1907	604.40896	-86.47833	506.83463	559.08562	-78.78745000000004	
